<svg xmlns="http://www.w3.org/2000/svg" xmlns:xlink="http://www.w3.org/1999/xlink" width="500" zoomAndPan="magnify" viewBox="0 0 375 374.999991" height="500" preserveAspectRatio="xMidYMid meet" version="1.0"><defs><clipPath id="id1"><path d="M 112.5 112.5 L 262.5 112.5 L 262.5 262.5 L 112.5 262.5 Z M 112.5 112.5 " clip-rule="nonzero"/></clipPath><clipPath id="id2"><path d="M 91.875 91.875 L 283.125 91.875 L 283.125 283.125 L 91.875 283.125 Z M 91.875 91.875 " clip-rule="nonzero"/></clipPath></defs><g clip-path="url(#id1)"><path fill="#004aad" d="M 258.929688 112.558594 C 256.910156 112.558594 255.363281 114.105469 255.363281 116.128906 L 255.363281 148.246094 L 223.246094 148.246094 C 221.222656 148.246094 219.675781 149.792969 219.675781 151.8125 L 219.675781 183.929688 L 187.558594 183.929688 C 185.539062 183.929688 183.992188 185.476562 183.992188 187.5 L 183.992188 219.617188 L 151.875 219.617188 C 149.851562 219.617188 148.304688 221.164062 148.304688 223.1875 L 148.304688 255.304688 L 116.1875 255.304688 C 114.164062 255.304688 112.617188 256.851562 112.617188 258.871094 C 112.617188 260.894531 114.164062 262.441406 116.1875 262.441406 L 151.875 262.441406 C 153.894531 262.441406 155.441406 260.894531 155.441406 258.871094 L 155.441406 226.753906 L 187.558594 226.753906 C 189.582031 226.753906 191.128906 225.207031 191.128906 223.1875 L 191.128906 191.070312 L 223.246094 191.070312 C 225.269531 191.070312 226.8125 189.523438 226.8125 187.5 L 226.8125 155.382812 L 258.929688 155.382812 C 260.953125 155.382812 262.5 153.835938 262.5 151.8125 L 262.5 116.128906 C 262.5 114.105469 260.953125 112.558594 258.929688 112.558594 Z M 214.753906 113.324219 C 214.449219 113.3125 214.144531 113.332031 213.847656 113.390625 L 168.050781 124.8125 C 166.859375 125.167969 165.792969 126.121094 165.433594 127.308594 C 165.078125 128.5 165.433594 129.925781 166.386719 130.761719 L 175.1875 139.5625 L 138.671875 176.675781 C 137.242188 178.101562 137.242188 180.363281 138.671875 181.671875 C 139.382812 182.382812 140.214844 182.742188 141.167969 182.742188 C 142.121094 182.742188 142.953125 182.382812 143.664062 181.671875 L 182.800781 142.179688 C 182.921875 142.058594 182.917969 141.941406 183.039062 141.820312 L 183.277344 141.585938 C 183.398438 141.464844 183.394531 141.34375 183.394531 141.226562 C 183.394531 141.109375 183.515625 140.988281 183.515625 140.988281 C 183.515625 140.871094 183.632812 140.75 183.632812 140.632812 C 183.632812 140.511719 183.753906 140.394531 183.753906 140.277344 L 183.753906 138.847656 C 183.753906 138.730469 183.632812 138.609375 183.632812 138.492188 C 183.632812 138.375 183.632812 138.253906 183.515625 138.132812 C 183.515625 138.015625 183.398438 137.894531 183.277344 137.777344 C 183.277344 137.65625 183.160156 137.539062 183.160156 137.539062 C 183.039062 137.421875 182.917969 137.300781 182.917969 137.183594 C 182.800781 137.0625 182.800781 137.0625 182.800781 136.945312 L 176.023438 130.164062 L 209.921875 121.71875 L 201.476562 155.621094 L 193.863281 148.007812 C 192.554688 146.699219 190.175781 146.699219 188.867188 148.007812 L 113.925781 222.949219 C 112.5 224.375 112.5 226.636719 113.925781 227.945312 C 114.402344 228.777344 115.234375 229.132812 116.1875 229.132812 C 117.140625 229.132812 117.972656 228.777344 118.683594 228.0625 L 191.128906 155.621094 L 200.761719 165.257812 C 201.714844 166.089844 203.023438 166.445312 204.214844 166.089844 C 205.402344 165.730469 206.355469 164.78125 206.710938 163.472656 L 218.128906 117.675781 C 218.488281 116.484375 218.132812 115.175781 217.179688 114.34375 C 216.554688 113.71875 215.664062 113.363281 214.753906 113.324219 Z M 118.804688 197.046875 C 118.113281 196.996094 117.40625 197.136719 116.78125 197.492188 C 115.117188 198.445312 114.523438 200.703125 115.472656 202.371094 L 115.710938 202.84375 C 116.425781 204.035156 117.613281 204.628906 118.804688 204.628906 C 119.398438 204.628906 119.992188 204.511719 120.585938 204.152344 C 122.253906 203.203125 122.851562 200.941406 121.898438 199.277344 L 121.660156 198.800781 C 121.0625 197.757812 119.957031 197.136719 118.804688 197.046875 Z M 118.804688 197.046875 " fill-opacity="1" fill-rule="nonzero"/></g><g clip-path="url(#id2)"><path fill="#004aad" d="M 270.6875 97.839844 C 274.242188 97.839844 277.160156 100.757812 277.160156 104.3125 L 277.160156 270.6875 C 277.160156 274.242188 274.242188 277.160156 270.6875 277.160156 L 104.3125 277.160156 C 100.757812 277.160156 97.839844 274.242188 97.839844 270.6875 L 97.839844 104.3125 C 97.839844 100.757812 100.757812 97.839844 104.3125 97.839844 L 270.6875 97.839844 M 270.6875 91.875 L 104.3125 91.875 C 97.457031 91.875 91.875 97.457031 91.875 104.3125 L 91.875 270.6875 C 91.875 277.542969 97.457031 283.125 104.3125 283.125 L 270.6875 283.125 C 277.542969 283.125 283.125 277.542969 283.125 270.6875 L 283.125 104.3125 C 283.125 97.457031 277.542969 91.875 270.6875 91.875 " fill-opacity="1" fill-rule="nonzero"/></g></svg>