<svg xmlns="http://www.w3.org/2000/svg" xmlns:xlink="http://www.w3.org/1999/xlink" width="500" zoomAndPan="magnify" viewBox="0 0 375 374.999991" height="500" preserveAspectRatio="xMidYMid meet" version="1.0"><defs><clipPath id="d945fce043"><path d="M 157 5.59375 L 360 5.59375 L 360 291 L 157 291 Z M 157 5.59375 " clip-rule="nonzero"/></clipPath><clipPath id="4f6f8f6240"><path d="M 20 221 L 306 221 L 306 358.84375 L 20 358.84375 Z M 20 221 " clip-rule="nonzero"/></clipPath></defs><g clip-path="url(#d945fce043)"><path fill="#27963c" d="M 228.527344 56.910156 C 281.230469 26.1875 318.808594 41.3125 358.925781 5.667969 C 358.925781 5.667969 370.015625 184.074219 243.019531 223.902344 C 213.667969 233.113281 191.386719 257.265625 185.308594 287.457031 C 185.132812 288.320312 184.964844 289.195312 184.800781 290.082031 C 184.800781 290.082031 164.417969 218.734375 264.84375 112.585938 C 185.785156 166.863281 160.816406 241.113281 160.816406 241.113281 C 160.816406 241.113281 135.316406 111.242188 228.527344 56.910156 " fill-opacity="1" fill-rule="nonzero"/></g><path fill="#40b93c" d="M 220.902344 88.058594 C 186.625 112.039062 170.738281 145.691406 164.203125 178.164062 C 169.667969 139.175781 186.722656 93.800781 232.839844 66.921875 C 277.742188 40.746094 311.667969 47.84375 345.535156 28.476562 C 308.84375 63.953125 270.285156 53.511719 220.902344 88.058594 " fill-opacity="1" fill-rule="nonzero"/><path fill="#80cc28" d="M 102.742188 135.242188 C 69.621094 114.101562 45.042969 122.859375 20.152344 98.878906 C 20.152344 98.878906 14.519531 163.628906 45.0625 208.832031 C 68.792969 243.957031 104.546875 235.113281 124.261719 248.789062 C 124.261719 248.789062 103.984375 201.214844 77.929688 170.125 C 127.398438 207.109375 141.542969 255.539062 141.542969 255.539062 C 141.542969 255.539062 161.316406 172.625 102.742188 135.242188 " fill-opacity="1" fill-rule="nonzero"/><path fill="#adda1a" d="M 105.871094 155.097656 C 125.71875 169.648438 134.621094 189.644531 138.039062 208.828125 C 135.335938 185.832031 125.898438 158.921875 99.128906 142.511719 C 73.0625 126.53125 53.015625 130.261719 33.351562 118.429688 C 54.46875 139.773438 77.28125 134.136719 105.871094 155.097656 " fill-opacity="1" fill-rule="nonzero"/><g clip-path="url(#4f6f8f6240)"><path fill="#228944" d="M 295.496094 221.390625 C 290.488281 221.390625 286.289062 225.144531 285.691406 230.121094 C 278.347656 291.449219 226.207031 338.988281 162.972656 338.988281 C 99.734375 338.988281 47.59375 291.449219 40.25 230.125 C 39.652344 225.144531 35.453125 221.390625 30.445312 221.390625 C 24.539062 221.390625 19.929688 226.554688 20.628906 232.425781 C 29.117188 303.59375 89.601562 358.773438 162.972656 358.773438 C 236.339844 358.773438 296.824219 303.59375 305.3125 232.425781 C 306.011719 226.554688 301.402344 221.390625 295.496094 221.390625 " fill-opacity="1" fill-rule="nonzero"/></g></svg>