<svg width="129" height="116" viewBox="0 0 129 116" fill="none" xmlns="http://www.w3.org/2000/svg">
<path d="M16.125 22.5C16.125 18.7288 16.125 16.8431 17.2966 15.6716C18.4681 14.5 20.3538 14.5 24.125 14.5H104.875C108.646 14.5 110.532 14.5 111.703 15.6716C112.875 16.8431 112.875 18.7288 112.875 22.5V93.5C112.875 97.2712 112.875 99.1569 111.703 100.328C110.532 101.5 108.646 101.5 104.875 101.5H24.125C20.3538 101.5 18.4681 101.5 17.2966 100.328C16.125 99.1569 16.125 97.2712 16.125 93.5V22.5Z" fill="#DCFADC" fill-opacity="0.81"/>
<ellipse cx="64.5" cy="48.3333" rx="21.5" ry="19.3333" fill="white"/>
<path fill-rule="evenodd" clip-rule="evenodd" d="M101.875 101.5C102.013 101.5 102.125 101.387 102.124 101.249C101.949 85.3482 85.1713 72.5 64.5003 72.5C43.8294 72.5 27.0517 85.3482 26.8767 101.249C26.8752 101.387 26.9873 101.5 27.1253 101.5H101.875Z" fill="white"/>
</svg>
